<mxfile host="app.diagrams.net" modified="2023-05-16T18:17:53.569Z" agent="Mozilla/5.0 (Windows NT 10.0; Win64; x64) AppleWebKit/537.36 (KHTML, like Gecko) Chrome/113.0.0.0 Safari/537.36" version="21.3.2" etag="MN79LoTzPpXCD8QoE2HI" type="github">
  <diagram name="Страница 1" id="FBSHWOaE0vjw9c7HnnYT">
    <mxGraphModel>
      <root>
        <mxCell id="0" />
        <mxCell id="1" parent="0" />
      </root>
    </mxGraphModel>
  </diagram>
</mxfile>
